<?xml version="1.0" encoding="UTF-8" standalone="no"?>
<!-- Created with Inkscape (http://www.inkscape.org/) -->

<svg
   xmlns:dc="http://purl.org/dc/elements/1.1/"
   xmlns:cc="http://creativecommons.org/ns#"
   xmlns:rdf="http://www.w3.org/1999/02/22-rdf-syntax-ns#"
   xmlns:svg="http://www.w3.org/2000/svg"
   xmlns="http://www.w3.org/2000/svg"
   version="1.1"
   width="1000"
   height="1000"
   viewBox="0 0 1000 1000"
   id="svg2"
   xml:space="preserve"><metadata
     id="metadata54"><rdf:RDF><cc:Work
         rdf:about=""><dc:format>image/svg+xml</dc:format><dc:type
           rdf:resource="http://purl.org/dc/dcmitype/StillImage" /><dc:title></dc:title></cc:Work></rdf:RDF></metadata><defs
     id="defs52" /><g
     transform="scale(15.625,15.625)"
     id="Layer_1"><g
       id="g5"><circle
         cx="32"
         cy="32"
         r="32"
         id="circle7"
         style="fill:#e0995e" /></g><g
       id="g9"><g
         id="g11"><g
           id="g13"
           style="opacity:0.2"><path
             d="M 36,23 V 14 H 19 c -1.657,0 -3,1.343 -3,3 v 34 c 0,1.657 1.343,3 3,3 h 26 c 1.657,0 3,-1.343 3,-3 V 26 h -9 c -1.657,0 -3,-1.343 -3,-3 z"
             id="path15"
             style="fill:#231f20" /></g><g
           id="g17"><path
             d="M 36,21 V 12 H 19 c -1.657,0 -3,1.343 -3,3 v 34 c 0,1.657 1.343,3 3,3 h 26 c 1.657,0 3,-1.343 3,-3 V 24 h -9 c -1.657,0 -3,-1.343 -3,-3 z"
             id="path19"
             style="fill:#e0e0d1" /></g><g
           id="g21"
           style="opacity:0.2"><polygon
             points="48,24 37.016,23.294 48,33 "
             id="polygon23"
             style="fill:#231f20" /></g><g
           id="g25"><path
             d="m 36,12 v 9 c 0,1.657 1.343,3 3,3 h 9 L 36,12 z"
             id="path27"
             style="fill:#ffffff" /></g></g><g
         id="g29"
         style="opacity:0.2"><rect
           width="9.625"
           height="2"
           x="22"
           y="22"
           id="rect31"
           style="fill:#231f20" /></g><g
         id="g33"
         style="opacity:0.2"><rect
           width="20"
           height="2"
           x="22"
           y="32"
           id="rect35"
           style="fill:#231f20" /></g><g
         id="g37"
         style="opacity:0.2"><rect
           width="20"
           height="2"
           x="22"
           y="27"
           id="rect39"
           style="fill:#231f20" /></g><g
         id="g41"
         style="opacity:0.2"><rect
           width="20"
           height="2"
           x="22"
           y="37"
           id="rect43"
           style="fill:#231f20" /></g><g
         id="g45"
         style="opacity:0.2"><rect
           width="20"
           height="2"
           x="22"
           y="42"
           id="rect47"
           style="fill:#231f20" /></g></g></g><g
     transform="translate(0,936)"
     id="Layer_2" /></svg>