<?xml version="1.0" encoding="UTF-8" standalone="no"?>
<!-- Created with Inkscape (http://www.inkscape.org/) -->

<svg
   xmlns:dc="http://purl.org/dc/elements/1.1/"
   xmlns:cc="http://creativecommons.org/ns#"
   xmlns:rdf="http://www.w3.org/1999/02/22-rdf-syntax-ns#"
   xmlns:svg="http://www.w3.org/2000/svg"
   xmlns="http://www.w3.org/2000/svg"
   version="1.1"
   width="1000"
   height="1000"
   viewBox="0 0 1000 1000"
   id="Layer_1"
   xml:space="preserve"><metadata
     id="metadata42"><rdf:RDF><cc:Work
         rdf:about=""><dc:format>image/svg+xml</dc:format><dc:type
           rdf:resource="http://purl.org/dc/dcmitype/StillImage" /><dc:title></dc:title></cc:Work></rdf:RDF></metadata><defs
     id="defs40" /><g
     transform="matrix(7.8093748,0,0,7.8093748,0,-6809.3749)"
     id="g3019"><circle
       cx="64"
       cy="64"
       r="64"
       transform="translate(0,872)"
       id="circle"
       style="fill:#4b5f83" /><g
       transform="translate(0,872)"
       id="icon"><path
         d="M 95,89 H 33 c -2.2,0 -4,-1.8 -4,-4 V 43 c 0,-2.2 1.8,-4 4,-4 h 62 c 2.2,0 4,1.8 4,4 v 42 c 0,2.2 -1.8,4 -4,4 z"
         id="base"
         style="fill:#ffffff" /><path
         d="M 95,39 H 33 c -2.2,0 -4,1.8 -4,4 v 1 1 4 h 4 62 4 v -4 -1 -1 c 0,-2.2 -1.8,-4 -4,-4 z"
         id="top"
         style="fill:#22a7f0" /><path
         d="m 39,45 0,0 c -1.1,0 -2,-0.9 -2,-2 v -8 c 0,-1.1 0.9,-2 2,-2 h 0 c 1.1,0 2,0.9 2,2 v 8 c 0,1.1 -0.9,2 -2,2 z"
         id="line_1_"
         style="fill:#22313f" /><path
         d="m 89,45 0,0 c -1.1,0 -2,-0.9 -2,-2 v -8 c 0,-1.1 0.9,-2 2,-2 l 0,0 c 1.1,0 2,0.9 2,2 v 8 c 0,1.1 -0.9,2 -2,2 z"
         id="line"
         style="fill:#22313f" /><g
         id="_x30_4"><path
           d="m 38,84 h -3 c -1.1,0 -2,-0.9 -2,-2 v -2 c 0,-1.1 0.9,-2 2,-2 h 3 c 1.1,0 2,0.9 2,2 v 2 c 0,1.1 -0.9,2 -2,2 z"
           id="day_27_"
           style="fill:#e6e6e6" /><path
           d="m 47,84 h -3 c -1.1,0 -2,-0.9 -2,-2 v -2 c 0,-1.1 0.9,-2 2,-2 h 3 c 1.1,0 2,0.9 2,2 v 2 c 0,1.1 -0.9,2 -2,2 z"
           id="day_26_"
           style="fill:#e6e6e6" /><path
           d="m 56,84 h -3 c -1.1,0 -2,-0.9 -2,-2 v -2 c 0,-1.1 0.9,-2 2,-2 h 3 c 1.1,0 2,0.9 2,2 v 2 c 0,1.1 -0.9,2 -2,2 z"
           id="day_25_"
           style="fill:#e6e6e6" /><path
           d="m 65,84 h -3 c -1.1,0 -2,-0.9 -2,-2 v -2 c 0,-1.1 0.9,-2 2,-2 h 3 c 1.1,0 2,0.9 2,2 v 2 c 0,1.1 -0.9,2 -2,2 z"
           id="day_24_"
           style="fill:#e6e6e6" /><path
           d="m 74,84 h -3 c -1.1,0 -2,-0.9 -2,-2 v -2 c 0,-1.1 0.9,-2 2,-2 h 3 c 1.1,0 2,0.9 2,2 v 2 c 0,1.1 -0.9,2 -2,2 z"
           id="day_23_"
           style="fill:#e6e6e6" /><path
           d="m 83,84 h -3 c -1.1,0 -2,-0.9 -2,-2 v -2 c 0,-1.1 0.9,-2 2,-2 h 3 c 1.1,0 2,0.9 2,2 v 2 c 0,1.1 -0.9,2 -2,2 z"
           id="day_22_"
           style="fill:#e6e6e6" /></g><g
         id="_x30_3"><path
           d="m 38,76 h -3 c -1.1,0 -2,-0.9 -2,-2 v -2 c 0,-1.1 0.9,-2 2,-2 h 3 c 1.1,0 2,0.9 2,2 v 2 c 0,1.1 -0.9,2 -2,2 z"
           id="day_20_"
           style="fill:#e6e6e6" /><path
           d="m 47,76 h -3 c -1.1,0 -2,-0.9 -2,-2 v -2 c 0,-1.1 0.9,-2 2,-2 h 3 c 1.1,0 2,0.9 2,2 v 2 c 0,1.1 -0.9,2 -2,2 z"
           id="day_19_"
           style="fill:#e6e6e6" /><path
           d="m 56,76 h -3 c -1.1,0 -2,-0.9 -2,-2 v -2 c 0,-1.1 0.9,-2 2,-2 h 3 c 1.1,0 2,0.9 2,2 v 2 c 0,1.1 -0.9,2 -2,2 z"
           id="day_18_"
           style="fill:#e6e6e6" /><path
           d="m 65,76 h -3 c -1.1,0 -2,-0.9 -2,-2 v -2 c 0,-1.1 0.9,-2 2,-2 h 3 c 1.1,0 2,0.9 2,2 v 2 c 0,1.1 -0.9,2 -2,2 z"
           id="day_17_"
           style="fill:#e6e6e6" /><path
           d="m 74,76 h -3 c -1.1,0 -2,-0.9 -2,-2 v -2 c 0,-1.1 0.9,-2 2,-2 h 3 c 1.1,0 2,0.9 2,2 v 2 c 0,1.1 -0.9,2 -2,2 z"
           id="day_16_"
           style="fill:#e6e6e6" /><path
           d="m 83,76 h -3 c -1.1,0 -2,-0.9 -2,-2 v -2 c 0,-1.1 0.9,-2 2,-2 h 3 c 1.1,0 2,0.9 2,2 v 2 c 0,1.1 -0.9,2 -2,2 z"
           id="day_15_"
           style="fill:#e6e6e6" /><path
           d="m 92,76 h -3 c -1.1,0 -2,-0.9 -2,-2 v -2 c 0,-1.1 0.9,-2 2,-2 h 3 c 1.1,0 2,0.9 2,2 v 2 c 0,1.1 -0.9,2 -2,2 z"
           id="day_14_"
           style="fill:#e6e6e6" /></g><g
         id="_x30_2"><path
           d="m 38,68 h -3 c -1.1,0 -2,-0.9 -2,-2 v -2 c 0,-1.1 0.9,-2 2,-2 h 3 c 1.1,0 2,0.9 2,2 v 2 c 0,1.1 -0.9,2 -2,2 z"
           id="day_13_"
           style="fill:#e6e6e6" /><path
           d="m 47,68 h -3 c -1.1,0 -2,-0.9 -2,-2 v -2 c 0,-1.1 0.9,-2 2,-2 h 3 c 1.1,0 2,0.9 2,2 v 2 c 0,1.1 -0.9,2 -2,2 z"
           id="day_12_"
           style="fill:#e6e6e6" /><path
           d="m 56,68 h -3 c -1.1,0 -2,-0.9 -2,-2 v -2 c 0,-1.1 0.9,-2 2,-2 h 3 c 1.1,0 2,0.9 2,2 v 2 c 0,1.1 -0.9,2 -2,2 z"
           id="day_11_"
           style="fill:#e6e6e6" /><path
           d="m 65,68 h -3 c -1.1,0 -2,-0.9 -2,-2 v -2 c 0,-1.1 0.9,-2 2,-2 h 3 c 1.1,0 2,0.9 2,2 v 2 c 0,1.1 -0.9,2 -2,2 z"
           id="day_10_"
           style="fill:#e6e6e6" /><path
           d="m 74,68 h -3 c -1.1,0 -2,-0.9 -2,-2 v -2 c 0,-1.1 0.9,-2 2,-2 h 3 c 1.1,0 2,0.9 2,2 v 2 c 0,1.1 -0.9,2 -2,2 z"
           id="day_9_"
           style="fill:#e6e6e6" /><path
           d="m 83,68 h -3 c -1.1,0 -2,-0.9 -2,-2 v -2 c 0,-1.1 0.9,-2 2,-2 h 3 c 1.1,0 2,0.9 2,2 v 2 c 0,1.1 -0.9,2 -2,2 z"
           id="day_8_"
           style="fill:#e6e6e6" /><path
           d="m 92,68 h -3 c -1.1,0 -2,-0.9 -2,-2 v -2 c 0,-1.1 0.9,-2 2,-2 h 3 c 1.1,0 2,0.9 2,2 v 2 c 0,1.1 -0.9,2 -2,2 z"
           id="day_7_"
           style="fill:#e6e6e6" /></g><g
         id="_x30_1"><path
           d="m 56,60 h -3 c -1.1,0 -2,-0.9 -2,-2 v -2 c 0,-1.1 0.9,-2 2,-2 h 3 c 1.1,0 2,0.9 2,2 v 2 c 0,1.1 -0.9,2 -2,2 z"
           id="day_4_"
           style="fill:#e6e6e6" /><path
           d="m 65,60 h -3 c -1.1,0 -2,-0.9 -2,-2 v -2 c 0,-1.1 0.9,-2 2,-2 h 3 c 1.1,0 2,0.9 2,2 v 2 c 0,1.1 -0.9,2 -2,2 z"
           id="day_3_"
           style="fill:#e6e6e6" /><path
           d="m 74,60 h -3 c -1.1,0 -2,-0.9 -2,-2 v -2 c 0,-1.1 0.9,-2 2,-2 h 3 c 1.1,0 2,0.9 2,2 v 2 c 0,1.1 -0.9,2 -2,2 z"
           id="day_2_"
           style="fill:#e6e6e6" /><path
           d="m 83,60 h -3 c -1.1,0 -2,-0.9 -2,-2 v -2 c 0,-1.1 0.9,-2 2,-2 h 3 c 1.1,0 2,0.9 2,2 v 2 c 0,1.1 -0.9,2 -2,2 z"
           id="day_1_"
           style="fill:#e6e6e6" /><path
           d="m 92,60 h -3 c -1.1,0 -2,-0.9 -2,-2 v -2 c 0,-1.1 0.9,-2 2,-2 h 3 c 1.1,0 2,0.9 2,2 v 2 c 0,1.1 -0.9,2 -2,2 z"
           id="day"
           style="fill:#e6e6e6" /></g></g></g></svg>