<?xml version="1.0" encoding="UTF-8" standalone="no"?>
<!-- Created with Inkscape (http://www.inkscape.org/) -->

<svg
   xmlns:dc="http://purl.org/dc/elements/1.1/"
   xmlns:cc="http://creativecommons.org/ns#"
   xmlns:rdf="http://www.w3.org/1999/02/22-rdf-syntax-ns#"
   xmlns:svg="http://www.w3.org/2000/svg"
   xmlns="http://www.w3.org/2000/svg"
   version="1.1"
   width="1000"
   height="1000"
   viewBox="0 0 1000 1000"
   id="svg6742">
  <defs
     id="defs6744" />
  <metadata
     id="metadata6747">
    <rdf:RDF>
      <cc:Work
         rdf:about="">
        <dc:format>image/svg+xml</dc:format>
        <dc:type
           rdf:resource="http://purl.org/dc/dcmitype/StillImage" />
        <dc:title></dc:title>
      </cc:Work>
    </rdf:RDF>
  </metadata>
  <g
     transform="translate(0,-52.362183)"
     id="layer1">
    <path
       d="M 0,552.35772 C 0,276.20764 223.86357,52.353183 500.00452,52.353183 776.1456,52.353183 1000,276.20764 1000,552.35772 1000,828.4986 776.1456,1052.3622 500.00452,1052.3622 223.86357,1052.3622 0,828.4986 0,552.35772"
       id="path3830"
       style="fill:#314a7e;fill-opacity:1;fill-rule:nonzero;stroke:none" />
    <path
       d="m 626.70857,552.54009 -82.86144,0 0,295.5272 -122.85596,0 0,-295.5272 -58.42338,0 0,-104.39976 58.42338,0 0,-67.55118 c 0,-48.30164 22.9426,-123.95932 123.94108,-123.95932 l 90.9953,0.39247 0,101.32676 -66.01923,0 c -10.83299,0 -26.06119,5.4165 -26.06119,28.4594 l 0,61.44166 93.585,0 -10.72356,104.29034"
       id="path3832"
       style="fill:#f1f2f2;fill-opacity:1;fill-rule:nonzero;stroke:none" />
  </g>
</svg>
