<?xml version="1.0" encoding="UTF-8" standalone="no"?>
<!-- Created with Inkscape (http://www.inkscape.org/) -->

<svg
   xmlns:dc="http://purl.org/dc/elements/1.1/"
   xmlns:cc="http://creativecommons.org/ns#"
   xmlns:rdf="http://www.w3.org/1999/02/22-rdf-syntax-ns#"
   xmlns:svg="http://www.w3.org/2000/svg"
   xmlns="http://www.w3.org/2000/svg"
   version="1.1"
   width="1000"
   height="1000"
   viewBox="0 0 1000 1000"
   id="svg6742">
  <defs
     id="defs6744" />
  <metadata
     id="metadata6747">
    <rdf:RDF>
      <cc:Work
         rdf:about="">
        <dc:format>image/svg+xml</dc:format>
        <dc:type
           rdf:resource="http://purl.org/dc/dcmitype/StillImage" />
        <dc:title></dc:title>
      </cc:Work>
    </rdf:RDF>
  </metadata>
  <g
     transform="translate(0,-52.362183)"
     id="layer1">
    <g
       transform="matrix(7.2949437,0,0,7.2949437,-4613.7556,-4483.7956)"
       id="g6887">
      <path
         d="m 632.45938,690.36093 c 0,-37.85374 30.68624,-68.53999 68.53999,-68.53999 37.85376,0 68.54126,30.68625 68.54126,68.53999 0,37.855 -30.6875,68.5425 -68.54126,68.5425 -37.85375,0 -68.53999,-30.6875 -68.53999,-68.5425"
         id="path3858"
         style="fill:#7b519d;fill-opacity:1;fill-rule:nonzero;stroke:none" />
      <path
         d="m 731.06313,706.05843 c -2.21,-1.78 -4.57125,-3.3775 -6.89626,-5.00875 -4.63749,-3.2575 -8.87749,-3.51 -12.33875,1.73 -1.9425,2.94125 -4.66125,3.07 -7.50624,1.78 -7.84125,-3.55625 -13.89501,-9.0325 -17.44251,-17.00249 -1.5675,-3.525 -1.54749,-6.68625 2.12376,-9.18 1.9425,-1.31875 3.90125,-2.87875 3.745,-5.76125 -0.20375,-3.7575 -9.32751,-16.31375 -12.93126,-17.63875 -1.49,-0.54875 -2.97499,-0.51375 -4.49124,0 -8.44875,2.84 -11.94626,9.7875 -8.59626,18.01375 9.99626,24.54249 27.59001,41.62624 51.80625,52.05749 1.38125,0.59125 2.91625,0.83 3.6925,1.0425 5.51251,0.0562 11.97126,-5.2575 13.83751,-10.53 1.795,-5.07125 -2,-7.08375 -5.0025,-9.5"
         id="path3860"
         style="fill:#f1f2f2;fill-opacity:1;fill-rule:nonzero;stroke:none" />
      <path
         d="m 703.90813,656.52844 c 17.70624,2.7225 25.87,11.14125 28.125,28.9725 0.2075,1.6475 -0.405,4.12624 1.94499,4.17249 2.45626,0.0463 1.86376,-2.39499 1.88501,-4.04374 0.2075,-16.795 -14.43626,-32.36375 -31.44251,-32.9375 -1.28374,0.18375 -3.9375,-0.885 -4.10375,1.99 -0.10999,1.93875 2.12625,1.62125 3.59126,1.84625"
         id="path3862"
         style="fill:#f1f2f2;fill-opacity:1;fill-rule:nonzero;stroke:none" />
      <path
         d="m 707.37188,661.41719 c -1.70375,-0.20375 -3.95001,-1.0075 -4.35,1.35625 -0.41376,2.48 2.09,2.22875 3.70124,2.58875 10.93501,2.44375 14.74126,6.42375 16.5425,17.27 0.26251,1.58125 -0.25874,4.0425 2.4275,3.63375 1.99126,-0.3025 1.27376,-2.41125 1.44001,-3.645 0.0888,-10.4125 -8.83626,-19.89125 -19.76125,-21.20375"
         id="path3864"
         style="fill:#f1f2f2;fill-opacity:1;fill-rule:nonzero;stroke:none" />
      <path
         d="m 708.37688,669.93344 c -1.13751,0.0275 -2.25251,0.15 -2.67,1.36625 -0.62876,1.815 0.69249,2.2475 2.035,2.46375 4.48624,0.72125 6.84499,3.365 7.29499,7.8375 0.12001,1.215 0.89126,2.1975 2.06376,2.06 1.625,-0.19375 1.7725,-1.64 1.72249,-3.015 0.0813,-5.025 -5.59875,-10.8325 -10.44624,-10.7125"
         id="path3866"
         style="fill:#f1f2f2;fill-opacity:1;fill-rule:nonzero;stroke:none" />
    </g>
  </g>
</svg>
