<?xml version="1.0" encoding="UTF-8" standalone="no"?>
<!-- Created with Inkscape (http://www.inkscape.org/) -->

<svg
   xmlns:dc="http://purl.org/dc/elements/1.1/"
   xmlns:cc="http://creativecommons.org/ns#"
   xmlns:rdf="http://www.w3.org/1999/02/22-rdf-syntax-ns#"
   xmlns:svg="http://www.w3.org/2000/svg"
   xmlns="http://www.w3.org/2000/svg"
   version="1.1"
   width="1000"
   height="1000"
   viewBox="0 0 1000 1000"
   id="svg6742">
  <defs
     id="defs6744" />
  <metadata
     id="metadata6747">
    <rdf:RDF>
      <cc:Work
         rdf:about="">
        <dc:format>image/svg+xml</dc:format>
        <dc:type
           rdf:resource="http://purl.org/dc/dcmitype/StillImage" />
        <dc:title></dc:title>
      </cc:Work>
    </rdf:RDF>
  </metadata>
  <g
     transform="translate(0,-52.362183)"
     id="layer1">
    <g
       transform="matrix(7.2949464,0,0,7.2949464,-3431.9761,-4031.5064)"
       id="g6915">
      <path
         d="m 470.4594,628.3616 c 0,-37.8538 30.685,-68.54 68.54,-68.54 37.8537,0 68.5412,30.6862 68.5412,68.54 0,37.855 -30.6875,68.5412 -68.5412,68.5412 -37.855,0 -68.54,-30.6862 -68.54,-68.5412"
         id="path3876"
         style="fill:#ef712b;fill-opacity:1;fill-rule:nonzero;stroke:none" />
      <path
         d="m 577.1256,650.2566 -34.48,0 c -0.745,-0.075 -1.3337,-0.6688 -1.3462,-1.4313 l 0,-39.4712 c 0.012,-0.7275 0.2625,-1.1013 1.1987,-1.4613 2.415,-0.9362 5.1513,-1.4887 7.9613,-1.4887 11.465,0 20.86,8.7962 21.8575,20 1.4762,-0.6163 3.105,-0.9663 4.8087,-0.9663 6.8663,0 12.4325,5.5688 12.4325,12.4388 0,6.8712 -5.5662,12.38 -12.4325,12.38 z m -36.995,-1.3775 0,-0.013 c -0.01,0.7512 -0.625,1.3637 -1.3687,1.3637 -0.7475,0 -1.3613,-0.6125 -1.3688,-1.3575 l -0.2812,-5.015 -0.2788,-5.1487 0.56,-27.8788 0,-0.14 c 0,-0.4225 0.2013,-0.8012 0.5088,-1.0575 0.235,-0.1925 0.5362,-0.3087 0.86,-0.3087 0.2575,0 0.4962,0.071 0.7012,0.1912 0.3888,0.2438 0.6613,0.675 0.6738,1.17 l 0.605,28.0238 -0.6113,10.17 z m -4.2812,-0.885 -0.054,1.0175 c -0.01,0.355 -0.155,0.6762 -0.3837,0.9087 -0.2325,0.2263 -0.5538,0.3725 -0.8938,0.3725 -0.3962,0 -0.7437,-0.1825 -0.9837,-0.4675 -0.1763,-0.2075 -0.2863,-0.4762 -0.2988,-0.76 l 0,-0.046 -0.49,-10.3275 0.4837,-25.435 0.01,-0.245 c 0,-0.4462 0.2413,-0.8425 0.5938,-1.0712 0.1975,-0.1313 0.4312,-0.2088 0.6925,-0.2088 0.2562,0 0.4987,0.081 0.7012,0.2213 0.345,0.2287 0.57,0.6162 0.5763,1.0587 l 0.54,25.6925 -0.4863,9.29 z m -4.405,1.0962 0,-0.01 c -0.01,0.67 -0.54,1.1875 -1.195,1.1875 -0.66,0 -1.1825,-0.5175 -1.2013,-1.1787 l -0.5325,-10.3925 0.5325,-21.5837 c 0.019,-0.67 0.5413,-1.1938 1.2013,-1.1938 0.655,0 1.185,0.5238 1.195,1.1938 l 0.6025,21.59 -0.6025,10.3862 z m -4.32,0.062 0,-0.01 c -0.02,0.6163 -0.5025,1.1038 -1.1125,1.1038 -0.6025,0 -1.0938,-0.4875 -1.105,-1.0975 l -0.59,-10.455 0.5837,-22.4038 c 0.018,-0.6237 0.5088,-1.1062 1.1113,-1.1062 0.61,0 1.0925,0.4825 1.1125,1.1062 l 0.6612,22.4038 -0.6612,10.455 z m -4.2838,0.092 c -0.02,0.57 -0.4675,1.0175 -1.0237,1.0175 -0.5575,0 -1.0038,-0.4475 -1.0238,-1.0112 l -0.6425,-10.5538 0.6425,-22.9912 c 0.02,-0.5713 0.4663,-1.0188 1.0238,-1.0188 0.5562,0 1.0037,0.4475 1.0237,1.0188 l 0.7125,22.9912 -0.7125,10.5475 z m -4.2562,0.07 0,-0.01 c -0.019,0.5238 -0.4313,0.9325 -0.9375,0.9325 -0.5075,0 -0.9188,-0.4087 -0.9375,-0.9262 l -0.6875,-10.6178 0.6875,-22.2475 c 0.019,-0.5175 0.43,-0.9312 0.9375,-0.9312 0.5062,0 0.9187,0.4137 0.9375,0.9312 l 0.7775,22.2475 -0.7775,10.6175 z m -4.2813,0.1675 0,-0.01 c -0.026,0.47 -0.3987,0.8438 -0.8587,0.8438 -0.4513,0 -0.8238,-0.3738 -0.8475,-0.8438 l -0.74,-10.7275 0.74,-20.5312 c 0.024,-0.47 0.3962,-0.8413 0.8475,-0.8413 0.46,0 0.8325,0.3713 0.8587,0.8413 l 0.835,20.5312 -0.835,10.7338 z m -4.1275,0.01 0,-0.01 c -0.025,0.425 -0.3612,0.7625 -0.7675,0.7625 -0.4062,0 -0.745,-0.3375 -0.7687,-0.7562 l -0.7838,-10.7975 0.7838,-16.7075 c 0.024,-0.4263 0.3625,-0.7625 0.7687,-0.7625 0.4063,0 0.7425,0.3362 0.7675,0.7562 l 0.89,16.7138 -0.89,10.7975 z m -4.1587,-0.01 c -0.023,0.3838 -0.3213,0.6688 -0.6763,0.6688 -0.3662,0 -0.6562,-0.285 -0.6812,-0.6688 l -0.8413,-10.7975 0.8413,-10.2687 c 0.025,-0.3825 0.315,-0.6675 0.6812,-0.6675 0.3613,0 0.6538,0.285 0.6763,0.6625 l 0.9537,10.2737 -0.9537,10.7975 z m -4.1175,-0.086 c -0.03,0.33 -0.2888,0.5813 -0.5963,0.5813 -0.315,0 -0.5725,-0.2513 -0.5975,-0.5813 l -0.89,-10.7112 0.89,-11.07 c 0.025,-0.3325 0.2825,-0.5825 0.5975,-0.5825 0.3075,0 0.5663,0.25 0.5963,0.5825 l 1.01,11.07 -1.01,10.7112 z m -4.0963,-0.3312 c -0.03,0.29 -0.2462,0.495 -0.5062,0.495 -0.2688,0 -0.4813,-0.205 -0.5075,-0.495 l -0.9425,-10.38 0.9425,-10.7725 c 0.024,-0.2938 0.2387,-0.5025 0.5075,-0.5025 0.26,0 0.4762,0.2087 0.5062,0.5025 l 1.0688,10.7725 -1.0688,10.38 z m -4.0575,-1.5025 c -0.035,0.24 -0.2087,0.4075 -0.4225,0.4075 -0.21,0 -0.3925,-0.1675 -0.4212,-0.4075 l -0.9938,-8.8825 0.9938,-9.0825 c 0.029,-0.2325 0.2112,-0.4075 0.4212,-0.4075 0.2138,0 0.3875,0.17 0.4225,0.4075 l 1.1313,9.0825 -1.1313,8.8825 z m -3.7575,-3.355 c -0.035,0.2262 -0.1962,0.3875 -0.4062,0.3875 -0.2113,0 -0.3713,-0.1613 -0.4038,-0.3938 l -0.7387,-5.5212 0.7387,-5.6138 c 0.033,-0.235 0.1925,-0.3962 0.4038,-0.3962 0.21,0 0.3712,0.1612 0.4062,0.3962 l 0.8775,5.6188 -0.8775,5.5225"
         id="path3878"
         style="fill:#f1f2f2;fill-opacity:1;fill-rule:nonzero;stroke:none" />
    </g>
  </g>
</svg>
