<?xml version="1.0" encoding="UTF-8" standalone="no"?>
<!-- Created with Inkscape (http://www.inkscape.org/) -->

<svg
   xmlns:dc="http://purl.org/dc/elements/1.1/"
   xmlns:cc="http://creativecommons.org/ns#"
   xmlns:rdf="http://www.w3.org/1999/02/22-rdf-syntax-ns#"
   xmlns:svg="http://www.w3.org/2000/svg"
   xmlns="http://www.w3.org/2000/svg"
   version="1.1"
   width="1000"
   height="1000"
   viewBox="0 0 1000 1000"
   id="svg6742">
  <defs
     id="defs6744" />
  <metadata
     id="metadata6747">
    <rdf:RDF>
      <cc:Work
         rdf:about="">
        <dc:format>image/svg+xml</dc:format>
        <dc:type
           rdf:resource="http://purl.org/dc/dcmitype/StillImage" />
        <dc:title></dc:title>
      </cc:Work>
    </rdf:RDF>
  </metadata>
  <g
     transform="translate(0,-52.362183)"
     id="layer1">
    <g
       id="g7077">
      <path
         d="M 1.283015e-5,552.35764 C 1.283015e-5,276.21666 223.85266,52.362194 499.99363,52.362194 c 276.15009,0 500.00456,223.854466 500.00456,499.995446 0,276.15009 -223.85447,500.00456 -500.00456,500.00456 C 223.85266,1052.3622 1.283015e-5,828.50773 1.283015e-5,552.35764"
         id="path3842"
         style="fill:#0088aa;fill-opacity:1;fill-rule:nonzero;stroke:none" />
      <path
         d="m 260.14021,498.60723 -63.29684,-62.69558 c 77.61348,-76.35537 184.49684,-123.54947 302.52378,-123.54947 118.68127,0 226.08506,47.712 303.78948,124.80758 l -63.15536,62.56169 C 678.04085,439.48639 593.18442,402.26871 499.496,402.26871 c -93.10232,0 -177.49137,36.75537 -239.35579,96.33852 z m 239.60589,73.10653 c 46.2139,0 88.12295,18.11874 118.99705,47.53769 l 63.15032,-62.56169 c -46.6181,-46.25431 -111.06442,-74.88253 -182.26862,-74.88253 -70.81517,0 -134.94822,28.31495 -181.51832,74.12716 l 63.29684,62.70064 c 30.80084,-29.05264 72.44968,-46.92127 118.34273,-46.92127 z m 1.88969,113.70695 c -29.81052,0 -53.97979,23.93937 -53.97979,53.46947 0,29.5301 24.16673,53.472 53.97979,53.472 29.808,0 53.97474,-23.9419 53.97474,-53.472 0,-29.5301 -24.16421,-53.46947 -53.97474,-53.46947 z"
         id="path3"
         style="fill:#ffffff" />
    </g>
  </g>
</svg>
